<mxfile host="Electron" modified="2024-02-22T01:03:24.024Z" agent="Mozilla/5.0 (Windows NT 10.0; Win64; x64) AppleWebKit/537.36 (KHTML, like Gecko) draw.io/23.1.5 Chrome/120.0.6099.109 Electron/28.1.0 Safari/537.36" etag="QIIbzEGCz9whhnI_nEwZ" version="23.1.5" type="device">
  <diagram id="R2lEEEUBdFMjLlhIrx00" name="Page-1">
    <mxGraphModel dx="827" dy="446" grid="1" gridSize="10" guides="1" tooltips="1" connect="1" arrows="1" fold="1" page="1" pageScale="1" pageWidth="850" pageHeight="1100" math="0" shadow="0" extFonts="Permanent Marker^https://fonts.googleapis.com/css?family=Permanent+Marker">
      <root>
        <mxCell id="0" />
        <mxCell id="1" parent="0" />
        <mxCell id="C-vyLk0tnHw3VtMMgP7b-1" value="" style="edgeStyle=entityRelationEdgeStyle;endArrow=ERzeroToMany;startArrow=ERone;endFill=1;startFill=0;entryX=0;entryY=0.5;entryDx=0;entryDy=0;" parent="1" source="kTmBrPCuGfn3WmzhbBEL-50" target="C-vyLk0tnHw3VtMMgP7b-3" edge="1">
          <mxGeometry width="100" height="100" relative="1" as="geometry">
            <mxPoint x="320" y="760" as="sourcePoint" />
            <mxPoint x="420" y="660" as="targetPoint" />
            <Array as="points">
              <mxPoint x="500" y="200" />
            </Array>
          </mxGeometry>
        </mxCell>
        <mxCell id="C-vyLk0tnHw3VtMMgP7b-12" value="" style="edgeStyle=entityRelationEdgeStyle;endArrow=ERzeroToMany;startArrow=ERone;endFill=1;startFill=0;fontStyle=1" parent="1" source="kTmBrPCuGfn3WmzhbBEL-87" target="C-vyLk0tnHw3VtMMgP7b-14" edge="1">
          <mxGeometry width="100" height="100" relative="1" as="geometry">
            <mxPoint x="380" y="220" as="sourcePoint" />
            <mxPoint x="440" y="245" as="targetPoint" />
          </mxGeometry>
        </mxCell>
        <mxCell id="C-vyLk0tnHw3VtMMgP7b-2" value="Categories" style="shape=table;startSize=30;container=1;collapsible=1;childLayout=tableLayout;fixedRows=1;rowLines=0;fontStyle=1;align=center;resizeLast=1;fillColor=#FFCC99;" parent="1" vertex="1">
          <mxGeometry x="510" y="160" width="250" height="120" as="geometry" />
        </mxCell>
        <mxCell id="C-vyLk0tnHw3VtMMgP7b-3" value="" style="shape=partialRectangle;collapsible=0;dropTarget=0;pointerEvents=0;fillColor=#FFE6CC;points=[[0,0.5],[1,0.5]];portConstraint=eastwest;top=0;left=0;right=0;bottom=1;" parent="C-vyLk0tnHw3VtMMgP7b-2" vertex="1">
          <mxGeometry y="30" width="250" height="30" as="geometry" />
        </mxCell>
        <mxCell id="C-vyLk0tnHw3VtMMgP7b-4" value="PK" style="shape=partialRectangle;overflow=hidden;connectable=0;fillColor=#FFE6CC;top=0;left=0;bottom=0;right=0;fontStyle=1;" parent="C-vyLk0tnHw3VtMMgP7b-3" vertex="1">
          <mxGeometry width="30" height="30" as="geometry">
            <mxRectangle width="30" height="30" as="alternateBounds" />
          </mxGeometry>
        </mxCell>
        <mxCell id="C-vyLk0tnHw3VtMMgP7b-5" value="category_id int NOT NULL " style="shape=partialRectangle;overflow=hidden;connectable=0;fillColor=#FFE6CC;top=0;left=0;bottom=0;right=0;align=left;spacingLeft=6;fontStyle=5;" parent="C-vyLk0tnHw3VtMMgP7b-3" vertex="1">
          <mxGeometry x="30" width="220" height="30" as="geometry">
            <mxRectangle width="220" height="30" as="alternateBounds" />
          </mxGeometry>
        </mxCell>
        <mxCell id="C-vyLk0tnHw3VtMMgP7b-6" value="" style="shape=partialRectangle;collapsible=0;dropTarget=0;pointerEvents=0;fillColor=#FFE6CC;points=[[0,0.5],[1,0.5]];portConstraint=eastwest;top=0;left=0;right=0;bottom=0;" parent="C-vyLk0tnHw3VtMMgP7b-2" vertex="1">
          <mxGeometry y="60" width="250" height="30" as="geometry" />
        </mxCell>
        <mxCell id="C-vyLk0tnHw3VtMMgP7b-7" value="" style="shape=partialRectangle;overflow=hidden;connectable=0;fillColor=#FFE6CC;top=0;left=0;bottom=0;right=0;" parent="C-vyLk0tnHw3VtMMgP7b-6" vertex="1">
          <mxGeometry width="30" height="30" as="geometry">
            <mxRectangle width="30" height="30" as="alternateBounds" />
          </mxGeometry>
        </mxCell>
        <mxCell id="C-vyLk0tnHw3VtMMgP7b-8" value="category_name int NOT NULL" style="shape=partialRectangle;overflow=hidden;connectable=0;fillColor=#FFE6CC;top=0;left=0;bottom=0;right=0;align=left;spacingLeft=6;" parent="C-vyLk0tnHw3VtMMgP7b-6" vertex="1">
          <mxGeometry x="30" width="220" height="30" as="geometry">
            <mxRectangle width="220" height="30" as="alternateBounds" />
          </mxGeometry>
        </mxCell>
        <mxCell id="C-vyLk0tnHw3VtMMgP7b-9" value="" style="shape=partialRectangle;collapsible=0;dropTarget=0;pointerEvents=0;fillColor=#FFE6CC;points=[[0,0.5],[1,0.5]];portConstraint=eastwest;top=0;left=0;right=0;bottom=0;" parent="C-vyLk0tnHw3VtMMgP7b-2" vertex="1">
          <mxGeometry y="90" width="250" height="30" as="geometry" />
        </mxCell>
        <mxCell id="C-vyLk0tnHw3VtMMgP7b-10" value="" style="shape=partialRectangle;overflow=hidden;connectable=0;fillColor=#FFE6CC;top=0;left=0;bottom=0;right=0;" parent="C-vyLk0tnHw3VtMMgP7b-9" vertex="1">
          <mxGeometry width="30" height="30" as="geometry">
            <mxRectangle width="30" height="30" as="alternateBounds" />
          </mxGeometry>
        </mxCell>
        <mxCell id="C-vyLk0tnHw3VtMMgP7b-11" value="category_description date NOT NULL" style="shape=partialRectangle;overflow=hidden;connectable=0;fillColor=#FFE6CC;top=0;left=0;bottom=0;right=0;align=left;spacingLeft=6;" parent="C-vyLk0tnHw3VtMMgP7b-9" vertex="1">
          <mxGeometry x="30" width="220" height="30" as="geometry">
            <mxRectangle width="220" height="30" as="alternateBounds" />
          </mxGeometry>
        </mxCell>
        <mxCell id="C-vyLk0tnHw3VtMMgP7b-13" value="Customers" style="shape=table;startSize=30;container=1;collapsible=1;childLayout=tableLayout;fixedRows=1;rowLines=0;fontStyle=1;align=center;resizeLast=1;fillColor=#CCFF99;" parent="1" vertex="1">
          <mxGeometry x="60" y="650" width="250" height="300" as="geometry" />
        </mxCell>
        <mxCell id="C-vyLk0tnHw3VtMMgP7b-14" value="" style="shape=partialRectangle;collapsible=0;dropTarget=0;pointerEvents=0;fillColor=#E6FFCC;points=[[0,0.5],[1,0.5]];portConstraint=eastwest;top=0;left=0;right=0;bottom=1;" parent="C-vyLk0tnHw3VtMMgP7b-13" vertex="1">
          <mxGeometry y="30" width="250" height="30" as="geometry" />
        </mxCell>
        <mxCell id="C-vyLk0tnHw3VtMMgP7b-15" value="PK" style="shape=partialRectangle;overflow=hidden;connectable=0;fillColor=#E6FFCC;top=0;left=0;bottom=0;right=0;fontStyle=1;" parent="C-vyLk0tnHw3VtMMgP7b-14" vertex="1">
          <mxGeometry width="30" height="30" as="geometry">
            <mxRectangle width="30" height="30" as="alternateBounds" />
          </mxGeometry>
        </mxCell>
        <mxCell id="C-vyLk0tnHw3VtMMgP7b-16" value="customer_id int NOT NULL " style="shape=partialRectangle;overflow=hidden;connectable=0;fillColor=#E6FFCC;top=0;left=0;bottom=0;right=0;align=left;spacingLeft=6;fontStyle=5;" parent="C-vyLk0tnHw3VtMMgP7b-14" vertex="1">
          <mxGeometry x="30" width="220" height="30" as="geometry">
            <mxRectangle width="220" height="30" as="alternateBounds" />
          </mxGeometry>
        </mxCell>
        <mxCell id="C-vyLk0tnHw3VtMMgP7b-17" value="" style="shape=partialRectangle;collapsible=0;dropTarget=0;pointerEvents=0;fillColor=#E6FFCC;points=[[0,0.5],[1,0.5]];portConstraint=eastwest;top=0;left=0;right=0;bottom=0;" parent="C-vyLk0tnHw3VtMMgP7b-13" vertex="1">
          <mxGeometry y="60" width="250" height="30" as="geometry" />
        </mxCell>
        <mxCell id="C-vyLk0tnHw3VtMMgP7b-18" value="" style="shape=partialRectangle;overflow=hidden;connectable=0;fillColor=#E6FFCC;top=0;left=0;bottom=0;right=0;" parent="C-vyLk0tnHw3VtMMgP7b-17" vertex="1">
          <mxGeometry width="30" height="30" as="geometry">
            <mxRectangle width="30" height="30" as="alternateBounds" />
          </mxGeometry>
        </mxCell>
        <mxCell id="C-vyLk0tnHw3VtMMgP7b-19" value="first_name int NOT NULL" style="shape=partialRectangle;overflow=hidden;connectable=0;fillColor=#E6FFCC;top=0;left=0;bottom=0;right=0;align=left;spacingLeft=6;" parent="C-vyLk0tnHw3VtMMgP7b-17" vertex="1">
          <mxGeometry x="30" width="220" height="30" as="geometry">
            <mxRectangle width="220" height="30" as="alternateBounds" />
          </mxGeometry>
        </mxCell>
        <mxCell id="C-vyLk0tnHw3VtMMgP7b-20" value="" style="shape=partialRectangle;collapsible=0;dropTarget=0;pointerEvents=0;fillColor=#E6FFCC;points=[[0,0.5],[1,0.5]];portConstraint=eastwest;top=0;left=0;right=0;bottom=0;" parent="C-vyLk0tnHw3VtMMgP7b-13" vertex="1">
          <mxGeometry y="90" width="250" height="30" as="geometry" />
        </mxCell>
        <mxCell id="C-vyLk0tnHw3VtMMgP7b-21" value="" style="shape=partialRectangle;overflow=hidden;connectable=0;fillColor=#E6FFCC;top=0;left=0;bottom=0;right=0;" parent="C-vyLk0tnHw3VtMMgP7b-20" vertex="1">
          <mxGeometry width="30" height="30" as="geometry">
            <mxRectangle width="30" height="30" as="alternateBounds" />
          </mxGeometry>
        </mxCell>
        <mxCell id="C-vyLk0tnHw3VtMMgP7b-22" value="last_name date NOT NULL" style="shape=partialRectangle;overflow=hidden;connectable=0;fillColor=#E6FFCC;top=0;left=0;bottom=0;right=0;align=left;spacingLeft=6;" parent="C-vyLk0tnHw3VtMMgP7b-20" vertex="1">
          <mxGeometry x="30" width="220" height="30" as="geometry">
            <mxRectangle width="220" height="30" as="alternateBounds" />
          </mxGeometry>
        </mxCell>
        <mxCell id="kTmBrPCuGfn3WmzhbBEL-53" value="" style="shape=partialRectangle;collapsible=0;dropTarget=0;pointerEvents=0;fillColor=#E6FFCC;points=[[0,0.5],[1,0.5]];portConstraint=eastwest;top=0;left=0;right=0;bottom=0;" vertex="1" parent="C-vyLk0tnHw3VtMMgP7b-13">
          <mxGeometry y="120" width="250" height="30" as="geometry" />
        </mxCell>
        <mxCell id="kTmBrPCuGfn3WmzhbBEL-54" value="" style="shape=partialRectangle;overflow=hidden;connectable=0;fillColor=#E6FFCC;top=0;left=0;bottom=0;right=0;" vertex="1" parent="kTmBrPCuGfn3WmzhbBEL-53">
          <mxGeometry width="30" height="30" as="geometry">
            <mxRectangle width="30" height="30" as="alternateBounds" />
          </mxGeometry>
        </mxCell>
        <mxCell id="kTmBrPCuGfn3WmzhbBEL-55" value="email_address date NOT NULL" style="shape=partialRectangle;overflow=hidden;connectable=0;fillColor=#E6FFCC;top=0;left=0;bottom=0;right=0;align=left;spacingLeft=6;" vertex="1" parent="kTmBrPCuGfn3WmzhbBEL-53">
          <mxGeometry x="30" width="220" height="30" as="geometry">
            <mxRectangle width="220" height="30" as="alternateBounds" />
          </mxGeometry>
        </mxCell>
        <mxCell id="kTmBrPCuGfn3WmzhbBEL-56" value="" style="shape=partialRectangle;collapsible=0;dropTarget=0;pointerEvents=0;fillColor=#E6FFCC;points=[[0,0.5],[1,0.5]];portConstraint=eastwest;top=0;left=0;right=0;bottom=0;" vertex="1" parent="C-vyLk0tnHw3VtMMgP7b-13">
          <mxGeometry y="150" width="250" height="30" as="geometry" />
        </mxCell>
        <mxCell id="kTmBrPCuGfn3WmzhbBEL-57" value="" style="shape=partialRectangle;overflow=hidden;connectable=0;fillColor=#E6FFCC;top=0;left=0;bottom=0;right=0;" vertex="1" parent="kTmBrPCuGfn3WmzhbBEL-56">
          <mxGeometry width="30" height="30" as="geometry">
            <mxRectangle width="30" height="30" as="alternateBounds" />
          </mxGeometry>
        </mxCell>
        <mxCell id="kTmBrPCuGfn3WmzhbBEL-58" value="password date NOT NULL" style="shape=partialRectangle;overflow=hidden;connectable=0;fillColor=#E6FFCC;top=0;left=0;bottom=0;right=0;align=left;spacingLeft=6;" vertex="1" parent="kTmBrPCuGfn3WmzhbBEL-56">
          <mxGeometry x="30" width="220" height="30" as="geometry">
            <mxRectangle width="220" height="30" as="alternateBounds" />
          </mxGeometry>
        </mxCell>
        <mxCell id="kTmBrPCuGfn3WmzhbBEL-59" value="" style="shape=partialRectangle;collapsible=0;dropTarget=0;pointerEvents=0;fillColor=#E6FFCC;points=[[0,0.5],[1,0.5]];portConstraint=eastwest;top=0;left=0;right=0;bottom=0;" vertex="1" parent="C-vyLk0tnHw3VtMMgP7b-13">
          <mxGeometry y="180" width="250" height="30" as="geometry" />
        </mxCell>
        <mxCell id="kTmBrPCuGfn3WmzhbBEL-60" value="" style="shape=partialRectangle;overflow=hidden;connectable=0;fillColor=#E6FFCC;top=0;left=0;bottom=0;right=0;" vertex="1" parent="kTmBrPCuGfn3WmzhbBEL-59">
          <mxGeometry width="30" height="30" as="geometry">
            <mxRectangle width="30" height="30" as="alternateBounds" />
          </mxGeometry>
        </mxCell>
        <mxCell id="kTmBrPCuGfn3WmzhbBEL-61" value="mailing_address date NOT NULL" style="shape=partialRectangle;overflow=hidden;connectable=0;fillColor=#E6FFCC;top=0;left=0;bottom=0;right=0;align=left;spacingLeft=6;" vertex="1" parent="kTmBrPCuGfn3WmzhbBEL-59">
          <mxGeometry x="30" width="220" height="30" as="geometry">
            <mxRectangle width="220" height="30" as="alternateBounds" />
          </mxGeometry>
        </mxCell>
        <mxCell id="kTmBrPCuGfn3WmzhbBEL-62" value="" style="shape=partialRectangle;collapsible=0;dropTarget=0;pointerEvents=0;fillColor=#E6FFCC;points=[[0,0.5],[1,0.5]];portConstraint=eastwest;top=0;left=0;right=0;bottom=0;" vertex="1" parent="C-vyLk0tnHw3VtMMgP7b-13">
          <mxGeometry y="210" width="250" height="30" as="geometry" />
        </mxCell>
        <mxCell id="kTmBrPCuGfn3WmzhbBEL-63" value="" style="shape=partialRectangle;overflow=hidden;connectable=0;fillColor=#E6FFCC;top=0;left=0;bottom=0;right=0;" vertex="1" parent="kTmBrPCuGfn3WmzhbBEL-62">
          <mxGeometry width="30" height="30" as="geometry">
            <mxRectangle width="30" height="30" as="alternateBounds" />
          </mxGeometry>
        </mxCell>
        <mxCell id="kTmBrPCuGfn3WmzhbBEL-64" value="phone_number date NOT NULL" style="shape=partialRectangle;overflow=hidden;connectable=0;fillColor=#E6FFCC;top=0;left=0;bottom=0;right=0;align=left;spacingLeft=6;" vertex="1" parent="kTmBrPCuGfn3WmzhbBEL-62">
          <mxGeometry x="30" width="220" height="30" as="geometry">
            <mxRectangle width="220" height="30" as="alternateBounds" />
          </mxGeometry>
        </mxCell>
        <mxCell id="kTmBrPCuGfn3WmzhbBEL-65" value="" style="shape=partialRectangle;collapsible=0;dropTarget=0;pointerEvents=0;fillColor=#E6FFCC;points=[[0,0.5],[1,0.5]];portConstraint=eastwest;top=0;left=0;right=0;bottom=0;" vertex="1" parent="C-vyLk0tnHw3VtMMgP7b-13">
          <mxGeometry y="240" width="250" height="30" as="geometry" />
        </mxCell>
        <mxCell id="kTmBrPCuGfn3WmzhbBEL-66" value="" style="shape=partialRectangle;overflow=hidden;connectable=0;fillColor=#E6FFCC;top=0;left=0;bottom=0;right=0;" vertex="1" parent="kTmBrPCuGfn3WmzhbBEL-65">
          <mxGeometry width="30" height="30" as="geometry">
            <mxRectangle width="30" height="30" as="alternateBounds" />
          </mxGeometry>
        </mxCell>
        <mxCell id="kTmBrPCuGfn3WmzhbBEL-67" value="credit_card date NOT NULL" style="shape=partialRectangle;overflow=hidden;connectable=0;fillColor=#E6FFCC;top=0;left=0;bottom=0;right=0;align=left;spacingLeft=6;" vertex="1" parent="kTmBrPCuGfn3WmzhbBEL-65">
          <mxGeometry x="30" width="220" height="30" as="geometry">
            <mxRectangle width="220" height="30" as="alternateBounds" />
          </mxGeometry>
        </mxCell>
        <mxCell id="kTmBrPCuGfn3WmzhbBEL-165" value="" style="shape=partialRectangle;collapsible=0;dropTarget=0;pointerEvents=0;fillColor=#E6FFCC;points=[[0,0.5],[1,0.5]];portConstraint=eastwest;top=0;left=0;right=0;bottom=0;" vertex="1" parent="C-vyLk0tnHw3VtMMgP7b-13">
          <mxGeometry y="270" width="250" height="30" as="geometry" />
        </mxCell>
        <mxCell id="kTmBrPCuGfn3WmzhbBEL-166" value="" style="shape=partialRectangle;overflow=hidden;connectable=0;fillColor=#E6FFCC;top=0;left=0;bottom=0;right=0;" vertex="1" parent="kTmBrPCuGfn3WmzhbBEL-165">
          <mxGeometry width="30" height="30" as="geometry">
            <mxRectangle width="30" height="30" as="alternateBounds" />
          </mxGeometry>
        </mxCell>
        <mxCell id="kTmBrPCuGfn3WmzhbBEL-167" value="purchase_history date NOT NULL" style="shape=partialRectangle;overflow=hidden;connectable=0;fillColor=#E6FFCC;top=0;left=0;bottom=0;right=0;align=left;spacingLeft=6;" vertex="1" parent="kTmBrPCuGfn3WmzhbBEL-165">
          <mxGeometry x="30" width="220" height="30" as="geometry">
            <mxRectangle width="220" height="30" as="alternateBounds" />
          </mxGeometry>
        </mxCell>
        <mxCell id="C-vyLk0tnHw3VtMMgP7b-23" value="Products" style="shape=table;startSize=30;container=1;collapsible=1;childLayout=tableLayout;fixedRows=1;rowLines=0;fontStyle=1;align=center;resizeLast=1;fillColor=#FFCC99;" parent="1" vertex="1">
          <mxGeometry x="60" y="160" width="250" height="360" as="geometry" />
        </mxCell>
        <mxCell id="C-vyLk0tnHw3VtMMgP7b-24" value="" style="shape=partialRectangle;collapsible=0;dropTarget=0;pointerEvents=0;fillColor=#FFE6CC;points=[[0,0.5],[1,0.5]];portConstraint=eastwest;top=0;left=0;right=0;bottom=1;" parent="C-vyLk0tnHw3VtMMgP7b-23" vertex="1">
          <mxGeometry y="30" width="250" height="30" as="geometry" />
        </mxCell>
        <mxCell id="C-vyLk0tnHw3VtMMgP7b-25" value="PK" style="shape=partialRectangle;overflow=hidden;connectable=0;fillColor=#FFE6CC;top=0;left=0;bottom=0;right=0;fontStyle=1;" parent="C-vyLk0tnHw3VtMMgP7b-24" vertex="1">
          <mxGeometry width="30" height="30" as="geometry">
            <mxRectangle width="30" height="30" as="alternateBounds" />
          </mxGeometry>
        </mxCell>
        <mxCell id="C-vyLk0tnHw3VtMMgP7b-26" value="productId int NOT NULL " style="shape=partialRectangle;overflow=hidden;connectable=0;fillColor=#FFE6CC;top=0;left=0;bottom=0;right=0;align=left;spacingLeft=6;fontStyle=5;" parent="C-vyLk0tnHw3VtMMgP7b-24" vertex="1">
          <mxGeometry x="30" width="220" height="30" as="geometry">
            <mxRectangle width="220" height="30" as="alternateBounds" />
          </mxGeometry>
        </mxCell>
        <mxCell id="C-vyLk0tnHw3VtMMgP7b-27" value="" style="shape=partialRectangle;collapsible=0;dropTarget=0;pointerEvents=0;fillColor=#FFE6CC;points=[[0,0.5],[1,0.5]];portConstraint=eastwest;top=0;left=0;right=0;bottom=0;" parent="C-vyLk0tnHw3VtMMgP7b-23" vertex="1">
          <mxGeometry y="60" width="250" height="30" as="geometry" />
        </mxCell>
        <mxCell id="C-vyLk0tnHw3VtMMgP7b-28" value="" style="shape=partialRectangle;overflow=hidden;connectable=0;fillColor=#FFE6CC;top=0;left=0;bottom=0;right=0;" parent="C-vyLk0tnHw3VtMMgP7b-27" vertex="1">
          <mxGeometry width="30" height="30" as="geometry">
            <mxRectangle width="30" height="30" as="alternateBounds" />
          </mxGeometry>
        </mxCell>
        <mxCell id="C-vyLk0tnHw3VtMMgP7b-29" value="productName : varchar(50) " style="shape=partialRectangle;overflow=hidden;connectable=0;fillColor=#FFE6CC;top=0;left=0;bottom=0;right=0;align=left;spacingLeft=6;" parent="C-vyLk0tnHw3VtMMgP7b-27" vertex="1">
          <mxGeometry x="30" width="220" height="30" as="geometry">
            <mxRectangle width="220" height="30" as="alternateBounds" />
          </mxGeometry>
        </mxCell>
        <mxCell id="kTmBrPCuGfn3WmzhbBEL-1" value="" style="shape=partialRectangle;collapsible=0;dropTarget=0;pointerEvents=0;fillColor=#FFE6CC;points=[[0,0.5],[1,0.5]];portConstraint=eastwest;top=0;left=0;right=0;bottom=0;" vertex="1" parent="C-vyLk0tnHw3VtMMgP7b-23">
          <mxGeometry y="90" width="250" height="30" as="geometry" />
        </mxCell>
        <mxCell id="kTmBrPCuGfn3WmzhbBEL-2" value="" style="shape=partialRectangle;overflow=hidden;connectable=0;fillColor=#FFE6CC;top=0;left=0;bottom=0;right=0;" vertex="1" parent="kTmBrPCuGfn3WmzhbBEL-1">
          <mxGeometry width="30" height="30" as="geometry">
            <mxRectangle width="30" height="30" as="alternateBounds" />
          </mxGeometry>
        </mxCell>
        <mxCell id="kTmBrPCuGfn3WmzhbBEL-3" value="price : varchar(50) " style="shape=partialRectangle;overflow=hidden;connectable=0;fillColor=#FFE6CC;top=0;left=0;bottom=0;right=0;align=left;spacingLeft=6;" vertex="1" parent="kTmBrPCuGfn3WmzhbBEL-1">
          <mxGeometry x="30" width="220" height="30" as="geometry">
            <mxRectangle width="220" height="30" as="alternateBounds" />
          </mxGeometry>
        </mxCell>
        <mxCell id="kTmBrPCuGfn3WmzhbBEL-4" value="" style="shape=partialRectangle;collapsible=0;dropTarget=0;pointerEvents=0;fillColor=#FFE6CC;points=[[0,0.5],[1,0.5]];portConstraint=eastwest;top=0;left=0;right=0;bottom=0;" vertex="1" parent="C-vyLk0tnHw3VtMMgP7b-23">
          <mxGeometry y="120" width="250" height="30" as="geometry" />
        </mxCell>
        <mxCell id="kTmBrPCuGfn3WmzhbBEL-5" value="" style="shape=partialRectangle;overflow=hidden;connectable=0;fillColor=#FFE6CC;top=0;left=0;bottom=0;right=0;" vertex="1" parent="kTmBrPCuGfn3WmzhbBEL-4">
          <mxGeometry width="30" height="30" as="geometry">
            <mxRectangle width="30" height="30" as="alternateBounds" />
          </mxGeometry>
        </mxCell>
        <mxCell id="kTmBrPCuGfn3WmzhbBEL-6" value="size : varchar(50) " style="shape=partialRectangle;overflow=hidden;connectable=0;fillColor=#FFE6CC;top=0;left=0;bottom=0;right=0;align=left;spacingLeft=6;" vertex="1" parent="kTmBrPCuGfn3WmzhbBEL-4">
          <mxGeometry x="30" width="220" height="30" as="geometry">
            <mxRectangle width="220" height="30" as="alternateBounds" />
          </mxGeometry>
        </mxCell>
        <mxCell id="kTmBrPCuGfn3WmzhbBEL-7" value="" style="shape=partialRectangle;collapsible=0;dropTarget=0;pointerEvents=0;fillColor=#FFE6CC;points=[[0,0.5],[1,0.5]];portConstraint=eastwest;top=0;left=0;right=0;bottom=0;" vertex="1" parent="C-vyLk0tnHw3VtMMgP7b-23">
          <mxGeometry y="150" width="250" height="30" as="geometry" />
        </mxCell>
        <mxCell id="kTmBrPCuGfn3WmzhbBEL-8" value="" style="shape=partialRectangle;overflow=hidden;connectable=0;fillColor=#FFE6CC;top=0;left=0;bottom=0;right=0;" vertex="1" parent="kTmBrPCuGfn3WmzhbBEL-7">
          <mxGeometry width="30" height="30" as="geometry">
            <mxRectangle width="30" height="30" as="alternateBounds" />
          </mxGeometry>
        </mxCell>
        <mxCell id="kTmBrPCuGfn3WmzhbBEL-9" value="color : varchar(50) " style="shape=partialRectangle;overflow=hidden;connectable=0;fillColor=#FFE6CC;top=0;left=0;bottom=0;right=0;align=left;spacingLeft=6;" vertex="1" parent="kTmBrPCuGfn3WmzhbBEL-7">
          <mxGeometry x="30" width="220" height="30" as="geometry">
            <mxRectangle width="220" height="30" as="alternateBounds" />
          </mxGeometry>
        </mxCell>
        <mxCell id="kTmBrPCuGfn3WmzhbBEL-10" value="" style="shape=partialRectangle;collapsible=0;dropTarget=0;pointerEvents=0;fillColor=#FFE6CC;points=[[0,0.5],[1,0.5]];portConstraint=eastwest;top=0;left=0;right=0;bottom=0;" vertex="1" parent="C-vyLk0tnHw3VtMMgP7b-23">
          <mxGeometry y="180" width="250" height="30" as="geometry" />
        </mxCell>
        <mxCell id="kTmBrPCuGfn3WmzhbBEL-11" value="" style="shape=partialRectangle;overflow=hidden;connectable=0;fillColor=#FFE6CC;top=0;left=0;bottom=0;right=0;" vertex="1" parent="kTmBrPCuGfn3WmzhbBEL-10">
          <mxGeometry width="30" height="30" as="geometry">
            <mxRectangle width="30" height="30" as="alternateBounds" />
          </mxGeometry>
        </mxCell>
        <mxCell id="kTmBrPCuGfn3WmzhbBEL-12" value="fabric : varchar(50) " style="shape=partialRectangle;overflow=hidden;connectable=0;fillColor=#FFE6CC;top=0;left=0;bottom=0;right=0;align=left;spacingLeft=6;" vertex="1" parent="kTmBrPCuGfn3WmzhbBEL-10">
          <mxGeometry x="30" width="220" height="30" as="geometry">
            <mxRectangle width="220" height="30" as="alternateBounds" />
          </mxGeometry>
        </mxCell>
        <mxCell id="kTmBrPCuGfn3WmzhbBEL-13" value="" style="shape=partialRectangle;collapsible=0;dropTarget=0;pointerEvents=0;fillColor=#FFE6CC;points=[[0,0.5],[1,0.5]];portConstraint=eastwest;top=0;left=0;right=0;bottom=0;" vertex="1" parent="C-vyLk0tnHw3VtMMgP7b-23">
          <mxGeometry y="210" width="250" height="30" as="geometry" />
        </mxCell>
        <mxCell id="kTmBrPCuGfn3WmzhbBEL-14" value="" style="shape=partialRectangle;overflow=hidden;connectable=0;fillColor=#FFE6CC;top=0;left=0;bottom=0;right=0;" vertex="1" parent="kTmBrPCuGfn3WmzhbBEL-13">
          <mxGeometry width="30" height="30" as="geometry">
            <mxRectangle width="30" height="30" as="alternateBounds" />
          </mxGeometry>
        </mxCell>
        <mxCell id="kTmBrPCuGfn3WmzhbBEL-15" value="productDescription : varchar(50) " style="shape=partialRectangle;overflow=hidden;connectable=0;fillColor=#FFE6CC;top=0;left=0;bottom=0;right=0;align=left;spacingLeft=6;" vertex="1" parent="kTmBrPCuGfn3WmzhbBEL-13">
          <mxGeometry x="30" width="220" height="30" as="geometry">
            <mxRectangle width="220" height="30" as="alternateBounds" />
          </mxGeometry>
        </mxCell>
        <mxCell id="kTmBrPCuGfn3WmzhbBEL-16" value="" style="shape=partialRectangle;collapsible=0;dropTarget=0;pointerEvents=0;fillColor=#FFE6CC;points=[[0,0.5],[1,0.5]];portConstraint=eastwest;top=0;left=0;right=0;bottom=0;" vertex="1" parent="C-vyLk0tnHw3VtMMgP7b-23">
          <mxGeometry y="240" width="250" height="30" as="geometry" />
        </mxCell>
        <mxCell id="kTmBrPCuGfn3WmzhbBEL-17" value="" style="shape=partialRectangle;overflow=hidden;connectable=0;fillColor=#FFE6CC;top=0;left=0;bottom=0;right=0;" vertex="1" parent="kTmBrPCuGfn3WmzhbBEL-16">
          <mxGeometry width="30" height="30" as="geometry">
            <mxRectangle width="30" height="30" as="alternateBounds" />
          </mxGeometry>
        </mxCell>
        <mxCell id="kTmBrPCuGfn3WmzhbBEL-18" value="availableStock : varchar(50) " style="shape=partialRectangle;overflow=hidden;connectable=0;fillColor=#FFE6CC;top=0;left=0;bottom=0;right=0;align=left;spacingLeft=6;" vertex="1" parent="kTmBrPCuGfn3WmzhbBEL-16">
          <mxGeometry x="30" width="220" height="30" as="geometry">
            <mxRectangle width="220" height="30" as="alternateBounds" />
          </mxGeometry>
        </mxCell>
        <mxCell id="kTmBrPCuGfn3WmzhbBEL-19" value="" style="shape=partialRectangle;collapsible=0;dropTarget=0;pointerEvents=0;fillColor=#FFE6CC;points=[[0,0.5],[1,0.5]];portConstraint=eastwest;top=0;left=0;right=0;bottom=0;" vertex="1" parent="C-vyLk0tnHw3VtMMgP7b-23">
          <mxGeometry y="270" width="250" height="30" as="geometry" />
        </mxCell>
        <mxCell id="kTmBrPCuGfn3WmzhbBEL-20" value="" style="shape=partialRectangle;overflow=hidden;connectable=0;fillColor=#FFE6CC;top=0;left=0;bottom=0;right=0;" vertex="1" parent="kTmBrPCuGfn3WmzhbBEL-19">
          <mxGeometry width="30" height="30" as="geometry">
            <mxRectangle width="30" height="30" as="alternateBounds" />
          </mxGeometry>
        </mxCell>
        <mxCell id="kTmBrPCuGfn3WmzhbBEL-21" value="averateRating : varchar(50) " style="shape=partialRectangle;overflow=hidden;connectable=0;fillColor=#FFE6CC;top=0;left=0;bottom=0;right=0;align=left;spacingLeft=6;" vertex="1" parent="kTmBrPCuGfn3WmzhbBEL-19">
          <mxGeometry x="30" width="220" height="30" as="geometry">
            <mxRectangle width="220" height="30" as="alternateBounds" />
          </mxGeometry>
        </mxCell>
        <mxCell id="kTmBrPCuGfn3WmzhbBEL-50" value="" style="shape=partialRectangle;collapsible=0;dropTarget=0;pointerEvents=0;fillColor=#FFE6CC;points=[[0,0.5],[1,0.5]];portConstraint=eastwest;top=0;left=0;right=0;bottom=0;" vertex="1" parent="C-vyLk0tnHw3VtMMgP7b-23">
          <mxGeometry y="300" width="250" height="30" as="geometry" />
        </mxCell>
        <mxCell id="kTmBrPCuGfn3WmzhbBEL-51" value="FK1" style="shape=partialRectangle;overflow=hidden;connectable=0;fillColor=#FFE6CC;top=0;left=0;bottom=0;right=0;" vertex="1" parent="kTmBrPCuGfn3WmzhbBEL-50">
          <mxGeometry width="30" height="30" as="geometry">
            <mxRectangle width="30" height="30" as="alternateBounds" />
          </mxGeometry>
        </mxCell>
        <mxCell id="kTmBrPCuGfn3WmzhbBEL-52" value="productCategory: varchar(50) " style="shape=partialRectangle;overflow=hidden;connectable=0;fillColor=#FFE6CC;top=0;left=0;bottom=0;right=0;align=left;spacingLeft=6;" vertex="1" parent="kTmBrPCuGfn3WmzhbBEL-50">
          <mxGeometry x="30" width="220" height="30" as="geometry">
            <mxRectangle width="220" height="30" as="alternateBounds" />
          </mxGeometry>
        </mxCell>
        <mxCell id="kTmBrPCuGfn3WmzhbBEL-162" value="" style="shape=partialRectangle;collapsible=0;dropTarget=0;pointerEvents=0;fillColor=#FFE6CC;points=[[0,0.5],[1,0.5]];portConstraint=eastwest;top=0;left=0;right=0;bottom=0;" vertex="1" parent="C-vyLk0tnHw3VtMMgP7b-23">
          <mxGeometry y="330" width="250" height="30" as="geometry" />
        </mxCell>
        <mxCell id="kTmBrPCuGfn3WmzhbBEL-163" value="FK2" style="shape=partialRectangle;overflow=hidden;connectable=0;fillColor=#FFE6CC;top=0;left=0;bottom=0;right=0;" vertex="1" parent="kTmBrPCuGfn3WmzhbBEL-162">
          <mxGeometry width="30" height="30" as="geometry">
            <mxRectangle width="30" height="30" as="alternateBounds" />
          </mxGeometry>
        </mxCell>
        <mxCell id="kTmBrPCuGfn3WmzhbBEL-164" value="promotion_id: varchar(50) " style="shape=partialRectangle;overflow=hidden;connectable=0;fillColor=#FFE6CC;top=0;left=0;bottom=0;right=0;align=left;spacingLeft=6;" vertex="1" parent="kTmBrPCuGfn3WmzhbBEL-162">
          <mxGeometry x="30" width="220" height="30" as="geometry">
            <mxRectangle width="220" height="30" as="alternateBounds" />
          </mxGeometry>
        </mxCell>
        <mxCell id="kTmBrPCuGfn3WmzhbBEL-68" value="Orders" style="shape=table;startSize=30;container=1;collapsible=1;childLayout=tableLayout;fixedRows=1;rowLines=0;fontStyle=1;align=center;resizeLast=1;fillColor=#CCFF99;" vertex="1" parent="1">
          <mxGeometry x="510" y="870" width="250" height="210" as="geometry" />
        </mxCell>
        <mxCell id="kTmBrPCuGfn3WmzhbBEL-69" value="" style="shape=partialRectangle;collapsible=0;dropTarget=0;pointerEvents=0;fillColor=#E6FFCC;points=[[0,0.5],[1,0.5]];portConstraint=eastwest;top=0;left=0;right=0;bottom=1;" vertex="1" parent="kTmBrPCuGfn3WmzhbBEL-68">
          <mxGeometry y="30" width="250" height="30" as="geometry" />
        </mxCell>
        <mxCell id="kTmBrPCuGfn3WmzhbBEL-70" value="PK" style="shape=partialRectangle;overflow=hidden;connectable=0;fillColor=#E6FFCC;top=0;left=0;bottom=0;right=0;fontStyle=1;" vertex="1" parent="kTmBrPCuGfn3WmzhbBEL-69">
          <mxGeometry width="30" height="30" as="geometry">
            <mxRectangle width="30" height="30" as="alternateBounds" />
          </mxGeometry>
        </mxCell>
        <mxCell id="kTmBrPCuGfn3WmzhbBEL-71" value="order_id int NOT NULL " style="shape=partialRectangle;overflow=hidden;connectable=0;fillColor=#E6FFCC;top=0;left=0;bottom=0;right=0;align=left;spacingLeft=6;fontStyle=5;" vertex="1" parent="kTmBrPCuGfn3WmzhbBEL-69">
          <mxGeometry x="30" width="220" height="30" as="geometry">
            <mxRectangle width="220" height="30" as="alternateBounds" />
          </mxGeometry>
        </mxCell>
        <mxCell id="kTmBrPCuGfn3WmzhbBEL-72" value="" style="shape=partialRectangle;collapsible=0;dropTarget=0;pointerEvents=0;fillColor=#E6FFCC;points=[[0,0.5],[1,0.5]];portConstraint=eastwest;top=0;left=0;right=0;bottom=0;" vertex="1" parent="kTmBrPCuGfn3WmzhbBEL-68">
          <mxGeometry y="60" width="250" height="30" as="geometry" />
        </mxCell>
        <mxCell id="kTmBrPCuGfn3WmzhbBEL-73" value="" style="shape=partialRectangle;overflow=hidden;connectable=0;fillColor=#E6FFCC;top=0;left=0;bottom=0;right=0;" vertex="1" parent="kTmBrPCuGfn3WmzhbBEL-72">
          <mxGeometry width="30" height="30" as="geometry">
            <mxRectangle width="30" height="30" as="alternateBounds" />
          </mxGeometry>
        </mxCell>
        <mxCell id="kTmBrPCuGfn3WmzhbBEL-74" value="order_date int NOT NULL" style="shape=partialRectangle;overflow=hidden;connectable=0;fillColor=#E6FFCC;top=0;left=0;bottom=0;right=0;align=left;spacingLeft=6;" vertex="1" parent="kTmBrPCuGfn3WmzhbBEL-72">
          <mxGeometry x="30" width="220" height="30" as="geometry">
            <mxRectangle width="220" height="30" as="alternateBounds" />
          </mxGeometry>
        </mxCell>
        <mxCell id="kTmBrPCuGfn3WmzhbBEL-75" value="" style="shape=partialRectangle;collapsible=0;dropTarget=0;pointerEvents=0;fillColor=#E6FFCC;points=[[0,0.5],[1,0.5]];portConstraint=eastwest;top=0;left=0;right=0;bottom=0;" vertex="1" parent="kTmBrPCuGfn3WmzhbBEL-68">
          <mxGeometry y="90" width="250" height="30" as="geometry" />
        </mxCell>
        <mxCell id="kTmBrPCuGfn3WmzhbBEL-76" value="" style="shape=partialRectangle;overflow=hidden;connectable=0;fillColor=#E6FFCC;top=0;left=0;bottom=0;right=0;" vertex="1" parent="kTmBrPCuGfn3WmzhbBEL-75">
          <mxGeometry width="30" height="30" as="geometry">
            <mxRectangle width="30" height="30" as="alternateBounds" />
          </mxGeometry>
        </mxCell>
        <mxCell id="kTmBrPCuGfn3WmzhbBEL-77" value="order_status date NOT NULL" style="shape=partialRectangle;overflow=hidden;connectable=0;fillColor=#E6FFCC;top=0;left=0;bottom=0;right=0;align=left;spacingLeft=6;" vertex="1" parent="kTmBrPCuGfn3WmzhbBEL-75">
          <mxGeometry x="30" width="220" height="30" as="geometry">
            <mxRectangle width="220" height="30" as="alternateBounds" />
          </mxGeometry>
        </mxCell>
        <mxCell id="kTmBrPCuGfn3WmzhbBEL-78" value="" style="shape=partialRectangle;collapsible=0;dropTarget=0;pointerEvents=0;fillColor=#E6FFCC;points=[[0,0.5],[1,0.5]];portConstraint=eastwest;top=0;left=0;right=0;bottom=0;" vertex="1" parent="kTmBrPCuGfn3WmzhbBEL-68">
          <mxGeometry y="120" width="250" height="30" as="geometry" />
        </mxCell>
        <mxCell id="kTmBrPCuGfn3WmzhbBEL-79" value="" style="shape=partialRectangle;overflow=hidden;connectable=0;fillColor=#E6FFCC;top=0;left=0;bottom=0;right=0;" vertex="1" parent="kTmBrPCuGfn3WmzhbBEL-78">
          <mxGeometry width="30" height="30" as="geometry">
            <mxRectangle width="30" height="30" as="alternateBounds" />
          </mxGeometry>
        </mxCell>
        <mxCell id="kTmBrPCuGfn3WmzhbBEL-80" value="order_total_cost date NOT NULL" style="shape=partialRectangle;overflow=hidden;connectable=0;fillColor=#E6FFCC;top=0;left=0;bottom=0;right=0;align=left;spacingLeft=6;" vertex="1" parent="kTmBrPCuGfn3WmzhbBEL-78">
          <mxGeometry x="30" width="220" height="30" as="geometry">
            <mxRectangle width="220" height="30" as="alternateBounds" />
          </mxGeometry>
        </mxCell>
        <mxCell id="kTmBrPCuGfn3WmzhbBEL-81" value="" style="shape=partialRectangle;collapsible=0;dropTarget=0;pointerEvents=0;fillColor=#E6FFCC;points=[[0,0.5],[1,0.5]];portConstraint=eastwest;top=0;left=0;right=0;bottom=0;" vertex="1" parent="kTmBrPCuGfn3WmzhbBEL-68">
          <mxGeometry y="150" width="250" height="30" as="geometry" />
        </mxCell>
        <mxCell id="kTmBrPCuGfn3WmzhbBEL-82" value="" style="shape=partialRectangle;overflow=hidden;connectable=0;fillColor=#E6FFCC;top=0;left=0;bottom=0;right=0;" vertex="1" parent="kTmBrPCuGfn3WmzhbBEL-81">
          <mxGeometry width="30" height="30" as="geometry">
            <mxRectangle width="30" height="30" as="alternateBounds" />
          </mxGeometry>
        </mxCell>
        <mxCell id="kTmBrPCuGfn3WmzhbBEL-83" value="payment_method date NOT NULL" style="shape=partialRectangle;overflow=hidden;connectable=0;fillColor=#E6FFCC;top=0;left=0;bottom=0;right=0;align=left;spacingLeft=6;" vertex="1" parent="kTmBrPCuGfn3WmzhbBEL-81">
          <mxGeometry x="30" width="220" height="30" as="geometry">
            <mxRectangle width="220" height="30" as="alternateBounds" />
          </mxGeometry>
        </mxCell>
        <mxCell id="kTmBrPCuGfn3WmzhbBEL-87" value="" style="shape=partialRectangle;collapsible=0;dropTarget=0;pointerEvents=0;fillColor=#E6FFCC;points=[[0,0.5],[1,0.5]];portConstraint=eastwest;top=0;left=0;right=0;bottom=0;" vertex="1" parent="kTmBrPCuGfn3WmzhbBEL-68">
          <mxGeometry y="180" width="250" height="30" as="geometry" />
        </mxCell>
        <mxCell id="kTmBrPCuGfn3WmzhbBEL-88" value="FK1" style="shape=partialRectangle;overflow=hidden;connectable=0;fillColor=#E6FFCC;top=0;left=0;bottom=0;right=0;" vertex="1" parent="kTmBrPCuGfn3WmzhbBEL-87">
          <mxGeometry width="30" height="30" as="geometry">
            <mxRectangle width="30" height="30" as="alternateBounds" />
          </mxGeometry>
        </mxCell>
        <mxCell id="kTmBrPCuGfn3WmzhbBEL-89" value="customer_id date NOT NULL" style="shape=partialRectangle;overflow=hidden;connectable=0;fillColor=#E6FFCC;top=0;left=0;bottom=0;right=0;align=left;spacingLeft=6;" vertex="1" parent="kTmBrPCuGfn3WmzhbBEL-87">
          <mxGeometry x="30" width="220" height="30" as="geometry">
            <mxRectangle width="220" height="30" as="alternateBounds" />
          </mxGeometry>
        </mxCell>
        <mxCell id="kTmBrPCuGfn3WmzhbBEL-93" value="OrderLine" style="shape=table;startSize=30;container=1;collapsible=1;childLayout=tableLayout;fixedRows=1;rowLines=0;fontStyle=1;align=center;resizeLast=1;fillColor=#CCFF99;" vertex="1" parent="1">
          <mxGeometry x="510" y="650" width="250" height="180" as="geometry" />
        </mxCell>
        <mxCell id="kTmBrPCuGfn3WmzhbBEL-94" value="" style="shape=partialRectangle;collapsible=0;dropTarget=0;pointerEvents=0;fillColor=#E6FFCC;points=[[0,0.5],[1,0.5]];portConstraint=eastwest;top=0;left=0;right=0;bottom=1;" vertex="1" parent="kTmBrPCuGfn3WmzhbBEL-93">
          <mxGeometry y="30" width="250" height="30" as="geometry" />
        </mxCell>
        <mxCell id="kTmBrPCuGfn3WmzhbBEL-95" value="PK" style="shape=partialRectangle;overflow=hidden;connectable=0;fillColor=#E6FFCC;top=0;left=0;bottom=0;right=0;fontStyle=1;" vertex="1" parent="kTmBrPCuGfn3WmzhbBEL-94">
          <mxGeometry width="30" height="30" as="geometry">
            <mxRectangle width="30" height="30" as="alternateBounds" />
          </mxGeometry>
        </mxCell>
        <mxCell id="kTmBrPCuGfn3WmzhbBEL-96" value="orderLine_id int NOT NULL " style="shape=partialRectangle;overflow=hidden;connectable=0;fillColor=#E6FFCC;top=0;left=0;bottom=0;right=0;align=left;spacingLeft=6;fontStyle=5;" vertex="1" parent="kTmBrPCuGfn3WmzhbBEL-94">
          <mxGeometry x="30" width="220" height="30" as="geometry">
            <mxRectangle width="220" height="30" as="alternateBounds" />
          </mxGeometry>
        </mxCell>
        <mxCell id="kTmBrPCuGfn3WmzhbBEL-97" value="" style="shape=partialRectangle;collapsible=0;dropTarget=0;pointerEvents=0;fillColor=#E6FFCC;points=[[0,0.5],[1,0.5]];portConstraint=eastwest;top=0;left=0;right=0;bottom=0;" vertex="1" parent="kTmBrPCuGfn3WmzhbBEL-93">
          <mxGeometry y="60" width="250" height="30" as="geometry" />
        </mxCell>
        <mxCell id="kTmBrPCuGfn3WmzhbBEL-98" value="" style="shape=partialRectangle;overflow=hidden;connectable=0;fillColor=#E6FFCC;top=0;left=0;bottom=0;right=0;" vertex="1" parent="kTmBrPCuGfn3WmzhbBEL-97">
          <mxGeometry width="30" height="30" as="geometry">
            <mxRectangle width="30" height="30" as="alternateBounds" />
          </mxGeometry>
        </mxCell>
        <mxCell id="kTmBrPCuGfn3WmzhbBEL-99" value="order_quantity int NOT NULL" style="shape=partialRectangle;overflow=hidden;connectable=0;fillColor=#E6FFCC;top=0;left=0;bottom=0;right=0;align=left;spacingLeft=6;" vertex="1" parent="kTmBrPCuGfn3WmzhbBEL-97">
          <mxGeometry x="30" width="220" height="30" as="geometry">
            <mxRectangle width="220" height="30" as="alternateBounds" />
          </mxGeometry>
        </mxCell>
        <mxCell id="kTmBrPCuGfn3WmzhbBEL-100" value="" style="shape=partialRectangle;collapsible=0;dropTarget=0;pointerEvents=0;fillColor=#E6FFCC;points=[[0,0.5],[1,0.5]];portConstraint=eastwest;top=0;left=0;right=0;bottom=0;" vertex="1" parent="kTmBrPCuGfn3WmzhbBEL-93">
          <mxGeometry y="90" width="250" height="30" as="geometry" />
        </mxCell>
        <mxCell id="kTmBrPCuGfn3WmzhbBEL-101" value="" style="shape=partialRectangle;overflow=hidden;connectable=0;fillColor=#E6FFCC;top=0;left=0;bottom=0;right=0;" vertex="1" parent="kTmBrPCuGfn3WmzhbBEL-100">
          <mxGeometry width="30" height="30" as="geometry">
            <mxRectangle width="30" height="30" as="alternateBounds" />
          </mxGeometry>
        </mxCell>
        <mxCell id="kTmBrPCuGfn3WmzhbBEL-102" value="cost_subtotal_line date NOT NULL" style="shape=partialRectangle;overflow=hidden;connectable=0;fillColor=#E6FFCC;top=0;left=0;bottom=0;right=0;align=left;spacingLeft=6;" vertex="1" parent="kTmBrPCuGfn3WmzhbBEL-100">
          <mxGeometry x="30" width="220" height="30" as="geometry">
            <mxRectangle width="220" height="30" as="alternateBounds" />
          </mxGeometry>
        </mxCell>
        <mxCell id="kTmBrPCuGfn3WmzhbBEL-103" value="" style="shape=partialRectangle;collapsible=0;dropTarget=0;pointerEvents=0;fillColor=#E6FFCC;points=[[0,0.5],[1,0.5]];portConstraint=eastwest;top=0;left=0;right=0;bottom=0;" vertex="1" parent="kTmBrPCuGfn3WmzhbBEL-93">
          <mxGeometry y="120" width="250" height="30" as="geometry" />
        </mxCell>
        <mxCell id="kTmBrPCuGfn3WmzhbBEL-104" value="FK1" style="shape=partialRectangle;overflow=hidden;connectable=0;fillColor=#E6FFCC;top=0;left=0;bottom=0;right=0;" vertex="1" parent="kTmBrPCuGfn3WmzhbBEL-103">
          <mxGeometry width="30" height="30" as="geometry">
            <mxRectangle width="30" height="30" as="alternateBounds" />
          </mxGeometry>
        </mxCell>
        <mxCell id="kTmBrPCuGfn3WmzhbBEL-105" value="order_id date NOT NULL" style="shape=partialRectangle;overflow=hidden;connectable=0;fillColor=#E6FFCC;top=0;left=0;bottom=0;right=0;align=left;spacingLeft=6;" vertex="1" parent="kTmBrPCuGfn3WmzhbBEL-103">
          <mxGeometry x="30" width="220" height="30" as="geometry">
            <mxRectangle width="220" height="30" as="alternateBounds" />
          </mxGeometry>
        </mxCell>
        <mxCell id="kTmBrPCuGfn3WmzhbBEL-118" value="" style="shape=partialRectangle;collapsible=0;dropTarget=0;pointerEvents=0;fillColor=#E6FFCC;points=[[0,0.5],[1,0.5]];portConstraint=eastwest;top=0;left=0;right=0;bottom=0;" vertex="1" parent="kTmBrPCuGfn3WmzhbBEL-93">
          <mxGeometry y="150" width="250" height="30" as="geometry" />
        </mxCell>
        <mxCell id="kTmBrPCuGfn3WmzhbBEL-119" value="FK2" style="shape=partialRectangle;overflow=hidden;connectable=0;fillColor=#E6FFCC;top=0;left=0;bottom=0;right=0;" vertex="1" parent="kTmBrPCuGfn3WmzhbBEL-118">
          <mxGeometry width="30" height="30" as="geometry">
            <mxRectangle width="30" height="30" as="alternateBounds" />
          </mxGeometry>
        </mxCell>
        <mxCell id="kTmBrPCuGfn3WmzhbBEL-120" value="product_id date NOT NULL" style="shape=partialRectangle;overflow=hidden;connectable=0;fillColor=#E6FFCC;top=0;left=0;bottom=0;right=0;align=left;spacingLeft=6;" vertex="1" parent="kTmBrPCuGfn3WmzhbBEL-118">
          <mxGeometry x="30" width="220" height="30" as="geometry">
            <mxRectangle width="220" height="30" as="alternateBounds" />
          </mxGeometry>
        </mxCell>
        <mxCell id="kTmBrPCuGfn3WmzhbBEL-121" value="Promotions" style="shape=table;startSize=30;container=1;collapsible=1;childLayout=tableLayout;fixedRows=1;rowLines=0;fontStyle=1;align=center;resizeLast=1;fillColor=#FFCC99;" vertex="1" parent="1">
          <mxGeometry x="510" y="340" width="250" height="240" as="geometry" />
        </mxCell>
        <mxCell id="kTmBrPCuGfn3WmzhbBEL-122" value="" style="shape=partialRectangle;collapsible=0;dropTarget=0;pointerEvents=0;fillColor=#FFE6CC;points=[[0,0.5],[1,0.5]];portConstraint=eastwest;top=0;left=0;right=0;bottom=1;" vertex="1" parent="kTmBrPCuGfn3WmzhbBEL-121">
          <mxGeometry y="30" width="250" height="30" as="geometry" />
        </mxCell>
        <mxCell id="kTmBrPCuGfn3WmzhbBEL-123" value="PK" style="shape=partialRectangle;overflow=hidden;connectable=0;fillColor=#FFE6CC;top=0;left=0;bottom=0;right=0;fontStyle=1;" vertex="1" parent="kTmBrPCuGfn3WmzhbBEL-122">
          <mxGeometry width="30" height="30" as="geometry">
            <mxRectangle width="30" height="30" as="alternateBounds" />
          </mxGeometry>
        </mxCell>
        <mxCell id="kTmBrPCuGfn3WmzhbBEL-124" value="promotion_id int NOT NULL " style="shape=partialRectangle;overflow=hidden;connectable=0;fillColor=#FFE6CC;top=0;left=0;bottom=0;right=0;align=left;spacingLeft=6;fontStyle=5;" vertex="1" parent="kTmBrPCuGfn3WmzhbBEL-122">
          <mxGeometry x="30" width="220" height="30" as="geometry">
            <mxRectangle width="220" height="30" as="alternateBounds" />
          </mxGeometry>
        </mxCell>
        <mxCell id="kTmBrPCuGfn3WmzhbBEL-125" value="" style="shape=partialRectangle;collapsible=0;dropTarget=0;pointerEvents=0;fillColor=#FFE6CC;points=[[0,0.5],[1,0.5]];portConstraint=eastwest;top=0;left=0;right=0;bottom=0;" vertex="1" parent="kTmBrPCuGfn3WmzhbBEL-121">
          <mxGeometry y="60" width="250" height="30" as="geometry" />
        </mxCell>
        <mxCell id="kTmBrPCuGfn3WmzhbBEL-126" value="" style="shape=partialRectangle;overflow=hidden;connectable=0;fillColor=#FFE6CC;top=0;left=0;bottom=0;right=0;" vertex="1" parent="kTmBrPCuGfn3WmzhbBEL-125">
          <mxGeometry width="30" height="30" as="geometry">
            <mxRectangle width="30" height="30" as="alternateBounds" />
          </mxGeometry>
        </mxCell>
        <mxCell id="kTmBrPCuGfn3WmzhbBEL-127" value="promotion_name int NOT NULL" style="shape=partialRectangle;overflow=hidden;connectable=0;fillColor=#FFE6CC;top=0;left=0;bottom=0;right=0;align=left;spacingLeft=6;" vertex="1" parent="kTmBrPCuGfn3WmzhbBEL-125">
          <mxGeometry x="30" width="220" height="30" as="geometry">
            <mxRectangle width="220" height="30" as="alternateBounds" />
          </mxGeometry>
        </mxCell>
        <mxCell id="kTmBrPCuGfn3WmzhbBEL-128" value="" style="shape=partialRectangle;collapsible=0;dropTarget=0;pointerEvents=0;fillColor=#FFE6CC;points=[[0,0.5],[1,0.5]];portConstraint=eastwest;top=0;left=0;right=0;bottom=0;" vertex="1" parent="kTmBrPCuGfn3WmzhbBEL-121">
          <mxGeometry y="90" width="250" height="30" as="geometry" />
        </mxCell>
        <mxCell id="kTmBrPCuGfn3WmzhbBEL-129" value="" style="shape=partialRectangle;overflow=hidden;connectable=0;fillColor=#FFE6CC;top=0;left=0;bottom=0;right=0;" vertex="1" parent="kTmBrPCuGfn3WmzhbBEL-128">
          <mxGeometry width="30" height="30" as="geometry">
            <mxRectangle width="30" height="30" as="alternateBounds" />
          </mxGeometry>
        </mxCell>
        <mxCell id="kTmBrPCuGfn3WmzhbBEL-130" value="promotion_descripiton date NOT NULL" style="shape=partialRectangle;overflow=hidden;connectable=0;fillColor=#FFE6CC;top=0;left=0;bottom=0;right=0;align=left;spacingLeft=6;" vertex="1" parent="kTmBrPCuGfn3WmzhbBEL-128">
          <mxGeometry x="30" width="220" height="30" as="geometry">
            <mxRectangle width="220" height="30" as="alternateBounds" />
          </mxGeometry>
        </mxCell>
        <mxCell id="kTmBrPCuGfn3WmzhbBEL-131" value="" style="shape=partialRectangle;collapsible=0;dropTarget=0;pointerEvents=0;fillColor=#FFE6CC;points=[[0,0.5],[1,0.5]];portConstraint=eastwest;top=0;left=0;right=0;bottom=0;" vertex="1" parent="kTmBrPCuGfn3WmzhbBEL-121">
          <mxGeometry y="120" width="250" height="30" as="geometry" />
        </mxCell>
        <mxCell id="kTmBrPCuGfn3WmzhbBEL-132" value="" style="shape=partialRectangle;overflow=hidden;connectable=0;fillColor=#FFE6CC;top=0;left=0;bottom=0;right=0;" vertex="1" parent="kTmBrPCuGfn3WmzhbBEL-131">
          <mxGeometry width="30" height="30" as="geometry">
            <mxRectangle width="30" height="30" as="alternateBounds" />
          </mxGeometry>
        </mxCell>
        <mxCell id="kTmBrPCuGfn3WmzhbBEL-133" value="promotion_start NOT NULL" style="shape=partialRectangle;overflow=hidden;connectable=0;fillColor=#FFE6CC;top=0;left=0;bottom=0;right=0;align=left;spacingLeft=6;" vertex="1" parent="kTmBrPCuGfn3WmzhbBEL-131">
          <mxGeometry x="30" width="220" height="30" as="geometry">
            <mxRectangle width="220" height="30" as="alternateBounds" />
          </mxGeometry>
        </mxCell>
        <mxCell id="kTmBrPCuGfn3WmzhbBEL-134" value="" style="shape=partialRectangle;collapsible=0;dropTarget=0;pointerEvents=0;fillColor=#FFE6CC;points=[[0,0.5],[1,0.5]];portConstraint=eastwest;top=0;left=0;right=0;bottom=0;" vertex="1" parent="kTmBrPCuGfn3WmzhbBEL-121">
          <mxGeometry y="150" width="250" height="30" as="geometry" />
        </mxCell>
        <mxCell id="kTmBrPCuGfn3WmzhbBEL-135" value="" style="shape=partialRectangle;overflow=hidden;connectable=0;fillColor=#FFE6CC;top=0;left=0;bottom=0;right=0;" vertex="1" parent="kTmBrPCuGfn3WmzhbBEL-134">
          <mxGeometry width="30" height="30" as="geometry">
            <mxRectangle width="30" height="30" as="alternateBounds" />
          </mxGeometry>
        </mxCell>
        <mxCell id="kTmBrPCuGfn3WmzhbBEL-136" value="promotion_end date NOT NULL" style="shape=partialRectangle;overflow=hidden;connectable=0;fillColor=#FFE6CC;top=0;left=0;bottom=0;right=0;align=left;spacingLeft=6;" vertex="1" parent="kTmBrPCuGfn3WmzhbBEL-134">
          <mxGeometry x="30" width="220" height="30" as="geometry">
            <mxRectangle width="220" height="30" as="alternateBounds" />
          </mxGeometry>
        </mxCell>
        <mxCell id="kTmBrPCuGfn3WmzhbBEL-137" value="" style="shape=partialRectangle;collapsible=0;dropTarget=0;pointerEvents=0;fillColor=#FFE6CC;points=[[0,0.5],[1,0.5]];portConstraint=eastwest;top=0;left=0;right=0;bottom=0;" vertex="1" parent="kTmBrPCuGfn3WmzhbBEL-121">
          <mxGeometry y="180" width="250" height="30" as="geometry" />
        </mxCell>
        <mxCell id="kTmBrPCuGfn3WmzhbBEL-138" value="" style="shape=partialRectangle;overflow=hidden;connectable=0;fillColor=#FFE6CC;top=0;left=0;bottom=0;right=0;" vertex="1" parent="kTmBrPCuGfn3WmzhbBEL-137">
          <mxGeometry width="30" height="30" as="geometry">
            <mxRectangle width="30" height="30" as="alternateBounds" />
          </mxGeometry>
        </mxCell>
        <mxCell id="kTmBrPCuGfn3WmzhbBEL-139" value="profit_amount date NOT NULL" style="shape=partialRectangle;overflow=hidden;connectable=0;fillColor=#FFE6CC;top=0;left=0;bottom=0;right=0;align=left;spacingLeft=6;" vertex="1" parent="kTmBrPCuGfn3WmzhbBEL-137">
          <mxGeometry x="30" width="220" height="30" as="geometry">
            <mxRectangle width="220" height="30" as="alternateBounds" />
          </mxGeometry>
        </mxCell>
        <mxCell id="kTmBrPCuGfn3WmzhbBEL-159" value="" style="shape=partialRectangle;collapsible=0;dropTarget=0;pointerEvents=0;fillColor=#FFE6CC;points=[[0,0.5],[1,0.5]];portConstraint=eastwest;top=0;left=0;right=0;bottom=0;" vertex="1" parent="kTmBrPCuGfn3WmzhbBEL-121">
          <mxGeometry y="210" width="250" height="30" as="geometry" />
        </mxCell>
        <mxCell id="kTmBrPCuGfn3WmzhbBEL-160" value="FK1" style="shape=partialRectangle;overflow=hidden;connectable=0;fillColor=#FFE6CC;top=0;left=0;bottom=0;right=0;" vertex="1" parent="kTmBrPCuGfn3WmzhbBEL-159">
          <mxGeometry width="30" height="30" as="geometry">
            <mxRectangle width="30" height="30" as="alternateBounds" />
          </mxGeometry>
        </mxCell>
        <mxCell id="kTmBrPCuGfn3WmzhbBEL-161" value="products_eligible date NOT NULL" style="shape=partialRectangle;overflow=hidden;connectable=0;fillColor=#FFE6CC;top=0;left=0;bottom=0;right=0;align=left;spacingLeft=6;" vertex="1" parent="kTmBrPCuGfn3WmzhbBEL-159">
          <mxGeometry x="30" width="220" height="30" as="geometry">
            <mxRectangle width="220" height="30" as="alternateBounds" />
          </mxGeometry>
        </mxCell>
        <mxCell id="kTmBrPCuGfn3WmzhbBEL-172" value="" style="edgeStyle=entityRelationEdgeStyle;endArrow=ERzeroToMany;startArrow=ERone;endFill=1;startFill=0;" edge="1" parent="1" source="kTmBrPCuGfn3WmzhbBEL-162" target="kTmBrPCuGfn3WmzhbBEL-122">
          <mxGeometry width="100" height="100" relative="1" as="geometry">
            <mxPoint x="320" y="504.9999999999999" as="sourcePoint" />
            <mxPoint x="250" y="945" as="targetPoint" />
            <Array as="points">
              <mxPoint x="204" y="210" />
              <mxPoint x="420" y="520" />
              <mxPoint x="420" y="505" />
              <mxPoint x="420" y="530" />
              <mxPoint x="370" y="740" />
              <mxPoint x="470" y="730" />
              <mxPoint x="10" y="780" />
              <mxPoint x="280" y="850" />
              <mxPoint x="270" y="840" />
              <mxPoint x="290" y="830" />
              <mxPoint x="290" y="840" />
              <mxPoint x="-236" y="720" />
              <mxPoint x="-316" y="730" />
              <mxPoint x="94" y="520" />
              <mxPoint x="250" y="940" />
            </Array>
          </mxGeometry>
        </mxCell>
        <mxCell id="kTmBrPCuGfn3WmzhbBEL-174" value="" style="edgeStyle=entityRelationEdgeStyle;endArrow=ERzeroToMany;startArrow=ERone;endFill=1;startFill=0;" edge="1" parent="1" source="kTmBrPCuGfn3WmzhbBEL-103" target="kTmBrPCuGfn3WmzhbBEL-69">
          <mxGeometry width="100" height="100" relative="1" as="geometry">
            <mxPoint x="1030" y="950" as="sourcePoint" />
            <mxPoint x="830" y="800" as="targetPoint" />
            <Array as="points">
              <mxPoint x="790" y="930" />
            </Array>
          </mxGeometry>
        </mxCell>
        <mxCell id="kTmBrPCuGfn3WmzhbBEL-176" value="" style="edgeStyle=entityRelationEdgeStyle;endArrow=ERzeroToMany;startArrow=ERone;endFill=1;startFill=0;" edge="1" parent="1" source="kTmBrPCuGfn3WmzhbBEL-118" target="C-vyLk0tnHw3VtMMgP7b-24">
          <mxGeometry width="100" height="100" relative="1" as="geometry">
            <mxPoint x="770" y="1055" as="sourcePoint" />
            <mxPoint x="530" y="600" as="targetPoint" />
            <Array as="points">
              <mxPoint x="800" y="940" />
            </Array>
          </mxGeometry>
        </mxCell>
        <mxCell id="kTmBrPCuGfn3WmzhbBEL-207" value="" style="edgeStyle=entityRelationEdgeStyle;endArrow=ERzeroToMany;startArrow=ERone;endFill=1;startFill=0;" edge="1" parent="1" source="C-vyLk0tnHw3VtMMgP7b-24" target="kTmBrPCuGfn3WmzhbBEL-159">
          <mxGeometry width="100" height="100" relative="1" as="geometry">
            <mxPoint x="320" y="515" as="sourcePoint" />
            <mxPoint x="520" y="395" as="targetPoint" />
            <Array as="points">
              <mxPoint x="214" y="220" />
              <mxPoint x="430" y="530" />
              <mxPoint x="430" y="515" />
              <mxPoint x="430" y="540" />
              <mxPoint x="380" y="750" />
              <mxPoint x="480" y="740" />
              <mxPoint x="20" y="790" />
              <mxPoint x="290" y="860" />
              <mxPoint x="280" y="850" />
              <mxPoint x="300" y="840" />
              <mxPoint x="300" y="850" />
              <mxPoint x="-226" y="730" />
              <mxPoint x="-306" y="740" />
              <mxPoint x="104" y="530" />
              <mxPoint x="260" y="950" />
            </Array>
          </mxGeometry>
        </mxCell>
        <mxCell id="kTmBrPCuGfn3WmzhbBEL-217" value="&lt;h1&gt;&lt;font style=&quot;font-size: 48px;&quot;&gt;Diagramme Entité-Relation&amp;nbsp;&lt;/font&gt;&lt;/h1&gt;" style="text;html=1;align=center;verticalAlign=middle;resizable=0;points=[];autosize=1;strokeColor=none;fillColor=none;" vertex="1" parent="1">
          <mxGeometry x="100" y="30" width="650" height="100" as="geometry" />
        </mxCell>
      </root>
    </mxGraphModel>
  </diagram>
</mxfile>
